<svg xmlns="http://www.w3.org/2000/svg" xmlns:xlink="http://www.w3.org/1999/xlink" viewBox="0 0 508.92 1426.94"><defs><style>.cls-1{fill:#c71c4f;}.cls-2{fill:#fc53a2;}.cls-3{fill:#8c072f;}.cls-4{fill:url(#linear-gradient);}.cls-5{fill:url(#linear-gradient-2);}.cls-6{fill:#fc586b;}.cls-7{fill:#ff364e;}.cls-8{fill:#ff8c9a;}.cls-9{fill:#dbba90;}.cls-10{fill:#fef9df;}.cls-11{fill:#66053f;}.cls-12{fill:#fff;}</style><linearGradient id="linear-gradient" x1="90.14" y1="704.6" x2="375.91" y2="1006.85" gradientUnits="userSpaceOnUse"><stop offset="0" stop-color="#ef263e"/><stop offset="1" stop-color="#d6003d"/></linearGradient><linearGradient id="linear-gradient-2" x1="185.84" y1="49.4" x2="224.31" y2="832.5" xlink:href="#linear-gradient"/></defs><g id="Layer_2" data-name="Layer 2"><g id="icon_8"><path class="cls-1" d="M298,1051.82q-9.33,38.06-18.67,76.09c-5.32,21.67-10.66,43.46-12.25,65.71-5.47,76.43,33.27,148.67,75.29,212.74-8.49-15.27-7.77-34.19-3-51s13.35-32.26,20.12-48.37c36.76-87.39,16.59-195.78-49.14-264.1Z"/><path class="cls-2" d="M323.49,1328.18c-41.82-63.59-56.41-144.4-39.68-218.62l-4.5,18.35c-5.32,21.67-10.66,43.46-12.25,65.71-5.47,76.43,33.27,148.67,75.29,212.74-8.49-15.27-7.77-34.19-3-51s13.35-32.26,20.12-48.37c27.3-64.91,23.18-141.38-7.67-204.43C361,1180.13,366.51,1263.7,323.49,1328.18Z"/><path class="cls-1" d="M113.25,1086.3c13.54,81.06-30.43,164.65-12,244.74a163,163,0,0,0,64.63,95.9c-7.87-42.26,24.35-80.54,35.73-122,11-39.93,2.19-82.43-8.79-122.35-12.61-45.83-30.4-94-69.48-121.09a32.82,32.82,0,0,0-9.15,27.86Z"/><path class="cls-3" d="M157.21,637c-65.34,153.14-74.58,329.5-25.6,488.62,12.51,40.64,28.81,80.88,31,123.35,6.28-55.14-21.08-107.76-34.43-161.62C111,1018.3,117,945.3,133,876s41.67-135.91,64.26-203.36c3.83-11.41,6.88-25.83-2-34Z"/><path class="cls-3" d="M229.38,654.25c-31.71,88.52-6,186.4,23.2,275.78s62.29,183,44.4,275.27c23.52-44.08,25-97,15.95-146.18s-28-95.8-43.66-143.23c-30.71-92.81-49.2-194.68-19-287.65Z"/><path class="cls-4" d="M96.63,614.34c8,34.43-6.28,70.23-25.14,100.12S28.84,771.4,14.55,803.72a174.23,174.23,0,0,0-3.88,129.72c5.48,14.72,14.05,29.71,28.5,35.88S74.29,967.6,75.68,952c.61-6.87-2.41-13.47-5.07-19.83C37,851.63,56.68,751.69,118.4,690c2.73-2.73,5.84-5.53,9.68-5.92,10.19-1,13.38,13.46,12.21,23.63-9.08,79.24-41.13,162.81-8,235.35,16.29,35.62,46.3,62.75,69.91,94s41.42,72.29,27.89,109.05c-7,19.07-21.4,41.87-7.7,56.88,8.68,9.51,25,8.33,35.1.38s15.19-20.7,18.24-33.21c18.22-74.8-20.64-150.24-56.11-218.56S150.2,803.71,177.72,731.81c6.18-16.15,19.33-33.29,36.5-31.25,19.73,2.34,27.1,26.87,28.83,46.67,3.67,42.1,3.39,87.5,27.84,122,14.27,20.14,35.48,34.1,53.05,51.45s32.25,41.26,27.56,65.5c-2.49,12.82-9.92,27.16-2.29,37.76,3.65,5.08,10,7.59,16.26,8.22,22.14,2.25,42.3-17.26,46.61-39.1s-4-44.42-16.19-63-28.16-34.43-41.67-52.11a241.66,241.66,0,0,1-49.08-136.66c-.61-16.41.77-33.8,10.05-47.34S343.88,672.63,358,681c9.23,5.47,14.06,16.14,16.53,26.58,7.36,31.06-.21,67.52,20,92.25,11,13.47,28.09,20.28,41.13,31.77,23.28,20.53,30.94,56.83,17.95,85-6.44,14-16.9,31.6-6.12,42.58,7.91,8.06,21.78,4.87,31.14-1.45,35.93-24.3,37-78.73,18.4-117.92s-51.42-69.66-74.68-106.27c-16.58-26.1-28.19-55.16-45.45-80.81s-42.12-48.6-72.69-53.24c-18.44,32.41-52.88,55.19-89.93,59.48s-75.78-10-101.15-37.32Z"/><path class="cls-5" d="M330.32,357.55c-15.08-86.38-38.41-173.21-67.63-256.88C254.34,76.78,233.43,0,207.55,0s-46.8,76.78-55.14,100.67c-29.23,83.67-52.56,170.5-67.63,256.88C67,459.4,43.06,697.94,207.55,697.94S348.09,459.4,330.32,357.55Z"/><path class="cls-6" d="M187.53,101.47c5.84-19.71,13-41.18,30.53-51.9,7.51-4.6,17.26-5.28,25.82-3C234,22.31,221.5,0,207.55,0c-25.92,0-46.8,76.78-55.14,100.67-29.23,83.67-52.56,170.5-67.63,256.88C71.46,433.83,54.7,586.79,116.22,658.77,79.55,473.17,133.79,282.92,187.53,101.47Z"/><ellipse class="cls-3" cx="210.03" cy="561.22" rx="78.12" ry="99.86"/><ellipse class="cls-7" cx="210.03" cy="554.76" rx="78.12" ry="93.4"/><ellipse class="cls-8" cx="207.11" cy="562.75" rx="62.42" ry="79.12"/><ellipse class="cls-3" cx="210.03" cy="558.04" rx="59.5" ry="74.42"/><ellipse class="cls-9" cx="210.03" cy="554.76" rx="59.5" ry="71.14"/><path class="cls-10" d="M210,483.62a50.6,50.6,0,0,0-14.16,2l-8.47,29.89c-4.34,15.29-7.94,33.88,3.11,45.31,4.59,4.74,11,7.27,17.27,9.22a145.55,145.55,0,0,0,59.14,5.55,84.15,84.15,0,0,0,2.61-20.87C269.53,515.47,242.89,483.62,210,483.62Z"/><ellipse class="cls-11" cx="214.43" cy="548.69" rx="31.14" ry="34.17"/><ellipse class="cls-12" cx="245.57" cy="567.45" rx="14.97" ry="14.2"/><ellipse class="cls-12" cx="192.11" cy="525.26" rx="22.91" ry="21.74"/><path class="cls-1" d="M188.55,25.3a738.4,738.4,0,0,0-124,125.57c-7.73,10-15.31,20.34-19.58,32.22-10.6,29.46,2.4,64.57,27.57,83.19s60.05,21.49,89.55,11c5-1.76,10-4,13.64-7.76,5.89-6.07,7.4-15,8.56-23.41a1385,1385,0,0,0,12.92-203.5Z"/><path class="cls-1" d="M237.94,25.3A738.83,738.83,0,0,1,362,150.87c7.72,10,15.3,20.34,19.57,32.22,10.61,29.46-2.4,64.57-27.57,83.19s-60,21.49-89.55,11c-5-1.76-10-4-13.63-7.76-5.89-6.07-7.41-15-8.56-23.41a1383.66,1383.66,0,0,1-12.93-203.5Z"/><path class="cls-2" d="M188,30.49l-1.7-3.36A738,738,0,0,0,64.51,150.87c-7.73,10-15.31,20.34-19.58,32.22-10.6,29.46,2.4,64.57,27.57,83.19a85.3,85.3,0,0,0,27.94,13.45c-23-35-23.75-84.24-8.08-124.35C111.59,106.15,150.26,67.49,188,30.49Z"/><path class="cls-2" d="M354,266.28c25.17-18.62,38.18-53.73,27.57-83.19-4.27-11.88-11.85-22.24-19.57-32.22A737.92,737.92,0,0,0,239.41,26.49a46,46,0,0,0-5.62,14.56l.81-3.12,71.64,116.24c12.61,20.46,25.54,41.85,27.87,65.77,2,20.66-4.09,41-11.27,60.65A86.08,86.08,0,0,0,354,266.28Z"/><ellipse class="cls-12" cx="72.06" cy="207.26" rx="10.41" ry="19.39"/><path class="cls-12" d="M91.75,160.62c0,3.49-2.54,6.31-5.67,6.31s-5.67-2.82-5.67-6.31,2.54-6.3,5.67-6.3S91.75,157.14,91.75,160.62Z"/><ellipse class="cls-12" cx="320.51" cy="172.6" rx="4.58" ry="5.67"/><circle class="cls-12" cx="268.77" cy="430.29" r="4.8"/><path class="cls-6" d="M68.85,956.64c-6.16,5.43-15,9-22.62,5.82-5.15-2.14-8.7-6.89-11.59-11.66C6,903.55,20,842,43.94,792.24s57.39-96.33,67.5-150.64l-2.69,1.4c-2.5-5.28-5.29-10.82-10-14.13,1.82,29.81-11,59.88-27.23,85.59-18.87,29.89-42.65,56.94-56.94,89.26a174.18,174.18,0,0,0-3.88,129.72c5.48,14.72,14.05,29.71,28.5,35.88S74.29,967.6,75.68,952a21,21,0,0,0,0-3.07A43.28,43.28,0,0,1,68.85,956.64Z"/><path class="cls-6" d="M258.81,1202.3c-8.29-4.21-12.89-14.26-13.34-23.76-.51-10.52,2.84-20.77,5.05-31.06a145.91,145.91,0,0,0-8.58-87.66c-16.54-38.43-48.65-67.69-71.87-102.49-37.22-55.79-50.58-127-36.13-192.44,5.44-24.63,14.53-50.73,5.33-74.2-.37.15-.71.35-1.07.51,2.12,4.83,2.7,11.26,2.09,16.54-9.08,79.24-41.13,162.81-8,235.35,16.29,35.62,46.3,62.75,69.91,94s41.42,72.29,27.89,109.05c-7,19.07-21.4,41.87-7.7,56.88,8.68,9.51,25,8.33,35.1.38C258,1203.05,258.38,1202.67,258.81,1202.3Z"/><path class="cls-6" d="M342.9,617.63c.25,3.17,2.32,5.87,4.27,8.39,20.05,25.92,35.87,54.81,51.6,83.56,36.3,66.36,88,129.25,108.9,199.07,3.57-22.69-.75-47.92-10.66-68.82-18.59-39.19-51.42-69.66-74.68-106.27-16.58-26.1-28.19-55.16-45.45-80.81-9.24-13.74-20.66-26.69-34-36.48A8.81,8.81,0,0,0,342.9,617.63Z"/><path class="cls-6" d="M240.58,710.35a14.3,14.3,0,0,0-7.67,2.72c6.19,9.43,9.13,22.6,10.14,34.16,3.67,42.1,3.39,87.5,27.84,122,14.27,20.14,35.48,34.1,53.05,51.45s32.25,41.26,27.56,65.5c-2.49,12.82-9.92,27.16-2.29,37.76,3.65,5.08,10,7.59,16.26,8.22,9.94,1,19.48-2.38,27.37-8.38-10.26-8.57-10.84-25.61-13.41-39.59-10.76-58.47-77.57-89.43-102.06-143.6C258.66,799.17,266.41,747.71,240.58,710.35Z"/><path class="cls-6" d="M447.47,959.2a16,16,0,0,0,9.42,4.58,14.82,14.82,0,0,1-2.09-6.09c-.69-6.39,2.63-12.41,5.29-18.26,18.48-40.64,5-93.28-30.66-120.08-8-6-16.9-10.83-23.52-18.25-26.46-29.69-6.36-87.19-37.8-109.8a55.55,55.55,0,0,1,6.42,16.28c7.36,31.06-.21,67.52,20,92.25,11,13.47,28.09,20.28,41.13,31.77,23.28,20.53,30.94,56.83,17.95,85C447.15,930.59,436.69,948.22,447.47,959.2Z"/><circle class="cls-12" cx="242.66" cy="1168.79" r="5.2"/><path class="cls-12" d="M368.11,997c0,1.79-1,3.25-2.18,3.25s-2.18-1.46-2.18-3.25,1-3.26,2.18-3.26S368.11,995.18,368.11,997Z"/><ellipse class="cls-12" cx="455.38" cy="941.04" rx="2.36" ry="3.47"/><path class="cls-12" d="M242.66,1186.75c0,3.1-4.79,5.61-10.69,5.61s-10.7-2.51-10.7-5.61,4.79-5.62,10.7-5.62S242.66,1183.64,242.66,1186.75Z"/><path class="cls-12" d="M19,866.6c0,6.84-1.71,12.39-3.81,12.39s-3.81-5.55-3.81-12.39,1.71-12.4,3.81-12.4S19,859.75,19,866.6Z"/><path class="cls-12" d="M19,895.33c0,2.48-.86,4.48-1.91,4.48s-1.9-2-1.9-4.48.85-4.47,1.9-4.47S19,892.86,19,895.33Z"/><path class="cls-12" d="M468.37,811.34c0,1.47-.79,2.66-1.77,2.66s-1.76-1.19-1.76-2.66.79-2.66,1.76-2.66S468.37,809.87,468.37,811.34Z"/><path class="cls-2" d="M205.4,1285.78c-23.59,36.59-46.31,75.08-50.73,118.14-35.47-57.42-37.5-129-33-196.38,2.1-31.49,4.89-65.11-5.88-94,2,72.44-30.9,146.36-14.52,217.51a163,163,0,0,0,64.63,95.9c-7.87-42.26,24.35-80.54,35.73-122A136.5,136.5,0,0,0,205.4,1285.78Z"/></g></g></svg>