<svg xmlns="http://www.w3.org/2000/svg" viewBox="0 0 135.59 166.18"><defs><style>.cls-1{fill:#f17b7c;}.cls-2{fill:#f17172;}.cls-3{fill:#c24647;}.cls-4{fill:#f16162;}.cls-5{fill:#bf1113;}.cls-6{fill:#fff;}.cls-7{fill:#14234d;}</style></defs><g id="Layer_2" data-name="Layer 2"><g id="ocean_animals" data-name="ocean animals"><path class="cls-1" d="M54.41,112.6c-4.09,6.58-4.3,15.16-9,21.32a26,26,0,0,1-5.14,4.86c-1.9,1.42-4.09,2.45-5.85,4.06s-3,4.16-2.09,6.36a1.59,1.59,0,0,1,.21,1.07.86.86,0,0,1-1.05.46,1.92,1.92,0,0,1-1-.77c-3.81-5.09,2.52-9.3,5.74-12.25,1.81-1.65,3.75-3.14,5.45-4.89,3.93-4,5.58-9.93,6.12-15.54.23-2.39.12-4.81.55-7.17a31.69,31.69,0,0,1,3-8C55,94.84,58.77,87.25,65.28,82.37a8.37,8.37,0,0,1,2.88-1.54,7.17,7.17,0,0,1,3.59.14c3.1.81,6,3,6.84,6.1,1.62,5.87-5.83,10.26-9.82,13C63.53,103.63,57.84,107.08,54.41,112.6Z"/><path class="cls-2" d="M30.87,144.83c.38-.53,1-.75,1.34-.48s.34.9,0,1.42-1,.75-1.35.48S30.48,145.35,30.87,144.83Z"/><path class="cls-3" d="M30.82,146.25a.63.63,0,0,0,.43.11,1.3,1.3,0,0,1,.27-1.06,1.32,1.32,0,0,1,.92-.58.55.55,0,0,0-.23-.37c-.36-.27-1,0-1.34.48S30.46,146,30.82,146.25Z"/><path class="cls-2" d="M34.1,140.37c.39-.52,1-.74,1.35-.48s.34.9,0,1.43-1,.74-1.35.48S33.72,140.9,34.1,140.37Z"/><path class="cls-3" d="M34.06,141.8a.62.62,0,0,0,.42.11,1.35,1.35,0,0,1,.28-1.06,1.33,1.33,0,0,1,.92-.59.65.65,0,0,0-.23-.37c-.36-.26-1,0-1.35.48S33.7,141.54,34.06,141.8Z"/><path class="cls-2" d="M38.53,136.94c.51-.41,1.14-.47,1.43-.12s.1,1-.4,1.37-1.14.47-1.42.13S38,137.36,38.53,136.94Z"/><path class="cls-3" d="M38.14,138.32a.57.57,0,0,0,.38.2,1.3,1.3,0,0,1,.53-1,1.35,1.35,0,0,1,1-.34.65.65,0,0,0-.13-.41c-.29-.35-.92-.29-1.43.12S37.85,138,38.14,138.32Z"/><path class="cls-2" d="M42.45,133.72c.51-.42,1.15-.47,1.43-.13s.1,1-.4,1.37-1.14.47-1.42.13S42,134.13,42.45,133.72Z"/><path class="cls-3" d="M42.06,135.09a.65.65,0,0,0,.38.21,1.31,1.31,0,0,1,.53-1,1.3,1.3,0,0,1,1-.33.66.66,0,0,0-.13-.42c-.28-.34-.92-.29-1.43.13S41.77,134.74,42.06,135.09Z"/><path class="cls-2" d="M45,129.63c.25-.6.78-.95,1.2-.78s.54.8.28,1.4-.78.95-1.2.78S44.7,130.23,45,129.63Z"/><path class="cls-3" d="M45.24,131a.66.66,0,0,0,.44,0,1.49,1.49,0,0,1,.78-1.88.65.65,0,0,0-.3-.31c-.42-.17-.95.18-1.2.78S44.83,130.86,45.24,131Z"/><path class="cls-2" d="M47.15,124.4c.19-.62.68-1,1.11-.9s.62.74.44,1.37-.69,1-1.12.89S47,125,47.15,124.4Z"/><path class="cls-3" d="M47.58,125.76a.57.57,0,0,0,.44,0,1.36,1.36,0,0,1-.1-1.09,1.34,1.34,0,0,1,.68-.85.67.67,0,0,0-.34-.28c-.43-.12-.92.28-1.11.9S47.16,125.64,47.58,125.76Z"/><path class="cls-2" d="M48.75,119.05c.19-.63.69-1,1.11-.9s.63.74.44,1.36-.69,1-1.11.9S48.56,119.67,48.75,119.05Z"/><path class="cls-3" d="M49.19,120.41a.64.64,0,0,0,.43,0,1.5,1.5,0,0,1,.58-2,.57.57,0,0,0-.34-.27c-.42-.13-.92.27-1.11.9S48.76,120.28,49.19,120.41Z"/><path class="cls-2" d="M49.6,113.69c.18-.62.68-1,1.11-.9s.62.74.43,1.37-.68,1-1.11.89S49.41,114.32,49.6,113.69Z"/><path class="cls-3" d="M50,115.05a.54.54,0,0,0,.43,0,1.33,1.33,0,0,1-.09-1.09,1.31,1.31,0,0,1,.68-.85.71.71,0,0,0-.34-.28c-.43-.12-.93.28-1.11.9S49.6,114.93,50,115.05Z"/><path class="cls-2" d="M60.43,102c.42-.49,1-.66,1.38-.38s.28.93-.14,1.43-1,.66-1.38.38S60,102.49,60.43,102Z"/><path class="cls-3" d="M60.29,103.42a.65.65,0,0,0,.41.13,1.34,1.34,0,0,1,.35-1,1.32,1.32,0,0,1,1-.52.62.62,0,0,0-.2-.39c-.34-.28-1-.11-1.38.38S60,103.13,60.29,103.42Z"/><path class="cls-2" d="M65.4,98.17c.42-.5,1-.67,1.38-.39s.27.93-.15,1.43-1,.67-1.38.38S65,98.66,65.4,98.17Z"/><path class="cls-3" d="M65.25,99.59a.68.68,0,0,0,.42.13A1.49,1.49,0,0,1,67,98.17a.7.7,0,0,0-.2-.39c-.34-.28-1-.11-1.38.39S64.91,99.3,65.25,99.59Z"/><path class="cls-2" d="M62.62,92.88c.31-.57.88-.87,1.27-.66s.46.85.15,1.43-.88.86-1.27.65S62.31,93.45,62.62,92.88Z"/><path class="cls-3" d="M62.77,94.3a.63.63,0,0,0,.43,0,1.48,1.48,0,0,1,1-1.79.64.64,0,0,0-.28-.34c-.39-.21-1,.09-1.27.66S62.38,94.09,62.77,94.3Z"/><path class="cls-2" d="M65.61,88.58c.36-.54,1-.78,1.32-.53s.38.88,0,1.42-1,.79-1.32.54S65.25,89.13,65.61,88.58Z"/><path class="cls-3" d="M65.63,90a.58.58,0,0,0,.43.09A1.33,1.33,0,0,1,66.28,89a1.36,1.36,0,0,1,.9-.63.65.65,0,0,0-.25-.35c-.37-.25-1,0-1.32.53S65.26,89.77,65.63,90Z"/><path class="cls-2" d="M71.6,91.62c.5-.42,1.13-.49,1.42-.15s.12,1-.38,1.38-1.13.49-1.42.15S71.1,92,71.6,91.62Z"/><path class="cls-3" d="M71.22,93a.62.62,0,0,0,.39.2,1.34,1.34,0,0,1,.51-1,1.29,1.29,0,0,1,1-.35.61.61,0,0,0-.14-.42c-.29-.34-.92-.27-1.42.15S70.93,92.66,71.22,93Z"/><path class="cls-2" d="M69.92,95.86c.5-.41,1.13-.47,1.42-.13s.11,1-.39,1.37-1.14.48-1.42.14S69.42,96.28,69.92,95.86Z"/><path class="cls-3" d="M69.53,97.24a.65.65,0,0,0,.38.21,1.39,1.39,0,0,1,.52-1,1.36,1.36,0,0,1,1-.34.65.65,0,0,0-.13-.41c-.29-.34-.92-.28-1.42.13S69.24,96.9,69.53,97.24Z"/><path class="cls-2" d="M55.36,106.34c.42-.5,1-.67,1.38-.38s.28.92-.14,1.42-1,.67-1.38.38S54.94,106.84,55.36,106.34Z"/><path class="cls-3" d="M55.22,107.76a.6.6,0,0,0,.41.14A1.49,1.49,0,0,1,57,106.34a.6.6,0,0,0-.21-.38c-.34-.29-1-.12-1.38.38S54.88,107.47,55.22,107.76Z"/><path class="cls-2" d="M51,107.11c.43-.79,1.22-1.2,1.77-.9s.63,1.18.2,2-1.22,1.19-1.77.9S50.59,107.91,51,107.11Z"/><path class="cls-3" d="M51.22,109.09a.88.88,0,0,0,.6.07,1.93,1.93,0,0,1,.18-1.51,1.87,1.87,0,0,1,1.17-1,.89.89,0,0,0-.38-.47c-.55-.3-1.34.11-1.77.9S50.68,108.79,51.22,109.09Z"/><path class="cls-2" d="M56.42,102.1c.63-.65,1.5-.82,1.94-.39s.29,1.31-.34,2-1.5.82-1.94.39S55.79,102.75,56.42,102.1Z"/><path class="cls-3" d="M56.08,104.06a.89.89,0,0,0,.56.23,2.05,2.05,0,0,1,2-2,.85.85,0,0,0-.25-.55c-.44-.43-1.31-.26-1.94.39S55.63,103.63,56.08,104.06Z"/><path class="cls-2" d="M61.06,97.07c.76-.79,1.83-1,2.37-.48S63.78,98.18,63,99s-1.83,1-2.37.48S60.29,97.86,61.06,97.07Z"/><path class="cls-3" d="M60.64,99.45a1.1,1.1,0,0,0,.69.28A2.24,2.24,0,0,1,62,98a2.3,2.3,0,0,1,1.69-.76,1,1,0,0,0-.29-.67c-.54-.53-1.61-.31-2.37.48S60.1,98.92,60.64,99.45Z"/><path class="cls-2" d="M66.68,92.31c.77-.79,1.83-1,2.37-.48s.36,1.59-.41,2.38-1.83,1-2.37.48S65.91,93.1,66.68,92.31Z"/><path class="cls-3" d="M66.27,94.69A1,1,0,0,0,67,95a2.25,2.25,0,0,1,.71-1.71,2.22,2.22,0,0,1,1.69-.75,1.09,1.09,0,0,0-.3-.68c-.54-.52-1.6-.31-2.37.48S65.73,94.17,66.27,94.69Z"/><path class="cls-2" d="M71.41,86l-1.64.11-.09.13c-.06.09-.12.18-.17.27-.52,1-.41,2,.26,2.4A1.06,1.06,0,0,0,70,89a.82.82,0,0,0,.22,0,1.07,1.07,0,0,0,.25,0,2.32,2.32,0,0,0,1.43-1.19,2.09,2.09,0,0,0,.2-.5V86.6C71.88,86.41,71.64,86.22,71.41,86Z"/><path class="cls-3" d="M71.41,86l-1.64.11-.09.13a2.46,2.46,0,0,0-.17.27c-.52,1-.41,2,.26,2.4A.75.75,0,0,0,70,89a.82.82,0,0,0,.22,0,1.07,1.07,0,0,0,.25,0,2.33,2.33,0,0,1,.22-1.84,2.44,2.44,0,0,1,.37-.52l.61-.39Z"/><path class="cls-1" d="M110.35,64.8c4,.86,8.42,1.49,11.34,4.38,2.47,2.46,3.35,6.08,3.75,9.55a10.29,10.29,0,0,0,1,2.86A13.09,13.09,0,0,0,130,86.11a19.2,19.2,0,0,1,5,7.18,10.77,10.77,0,0,1,.49,5c-.35,3.69-2.86,6.55-5.58,9.07a13,13,0,0,1-3.24,2.4,4.27,4.27,0,0,1-3.89,0c.41-2.64,3.34-3.94,5.32-5.74a10,10,0,0,0,1-13.12c-2.35-2.92-6.33-4.41-8.06-7.74-1.24-2.42-1.08-5.45-2.66-7.67a8.58,8.58,0,0,0-2.4-2.17,16.94,16.94,0,0,0-9.78-2.66,13.73,13.73,0,0,1-4.2-.08,6.11,6.11,0,0,1-4.12-5.32c-.15-1.5.06-3.92,1-5.18,1.28-1.67,1.77-.39,2.93.76C104.14,63.11,107.29,64.15,110.35,64.8Z"/><path class="cls-4" d="M110.17,118.87a14.14,14.14,0,0,1-11.12,4.92,23.87,23.87,0,0,1-7.22-1.68l-1.23-.45,1.49-4.44a7.48,7.48,0,0,0,1.12.82,8.57,8.57,0,0,0,1.46.71,22.21,22.21,0,0,0,5.06,1.12,9,9,0,0,0,4.8-.22c1.45-.62,2.45-2,3.71-2.89a2.87,2.87,0,0,1,1.44-.57,1.11,1.11,0,0,1,1,.4C111.22,117.25,110.72,118.22,110.17,118.87Z"/><path class="cls-4" d="M119,89.92c-1.51-8.85-10.3-13.78-16.48-19.22l-.18-.15A10.45,10.45,0,0,1,99,66.28c-.85-2.46.68-4.34,2-6.22a.35.35,0,0,0,0-.08,68.39,68.39,0,0,0,3.81-6.1,21.15,21.15,0,0,0,2-4.56A12.56,12.56,0,0,0,105.55,40a16.27,16.27,0,0,0-4.35-4.85C95.3,30.68,86,29.15,83.84,21A16.64,16.64,0,0,1,85.39,9.44,37.27,37.27,0,0,1,92.64,0C90.55-.13,88.7,1.32,87.2,2.8c-3.52,3.48-6.47,7.71-7.59,12.54s-.15,10.29,3.24,13.89c4.38,4.66,12,5.67,15.43,11.07A10,10,0,0,1,88.22,55.56l.24-.28c.12-2.06-3.44-5.78-7.23-7A6.93,6.93,0,0,1,79,47a4.83,4.83,0,0,1-.61-.58,6,6,0,0,1-.66-.83,7,7,0,0,1-.54-.92,6.9,6.9,0,0,1-.32-.79,4.17,4.17,0,0,1-.17-.6C75.26,22,57.91,14.62,52.21,14.42c-3.9-.14-9.88-.68-13.27-1a4.36,4.36,0,0,0-4.09,2C17.77,42.07,45.43,62.32,45.43,62.32l.34.15a48.68,48.68,0,0,0-18.42,9.88c-5.26,4.31-9.52,9.46-10.42,16.42-1,7.67,2.07,15.88-1,23-2.42,5.59-8,9-12.58,13a11.19,11.19,0,0,0-2.86,3.5,4.58,4.58,0,0,0,.15,4.36,1.57,1.57,0,0,0,.67.58.85.85,0,0,0,.44,0c.74-.09,1.3-1.11,1.64-1.91C6.13,124.76,14.82,122.86,19,117c2.08-2.93,2.81-6.6,3-10.18s-.12-7.18.12-10.76c0-.5.08-1,.13-1.51A18.86,18.86,0,0,1,25.75,85a17.6,17.6,0,0,1,10.4-6,38.63,38.63,0,0,1,12.19-.14c2,.23,4.19.6,5.62,2,4.45,4.46.94,12.43-2.45,16.31-2.29,2.62-5.19,4.64-7.47,7.29-.51.58-1,1.19-1.45,1.8-3.12,4.11-5.55,8.79-9.28,12.42-5.26,5.09-13.16,6.5-17.52,12.69a22.64,22.64,0,0,0-3.36,8.67,5.14,5.14,0,0,0,.3,3.1,1.73,1.73,0,0,0,.69.86c.76.42,1.11-.31,1.3-.92a32,32,0,0,1,5.17-10.44,20.54,20.54,0,0,1,6.41-5.5c2.5-1.33,5.44-1.66,7.82-3.23,2.1-1.38,3.44-3.59,4.93-5.55,1.66-2.18,3.36-4.33,4.93-6.57a30.28,30.28,0,0,1,5.57-6.57l.56-.41c2.15-1.5,4.78-2.21,6.72-4,2.29-2.13,3.11-5.35,4.24-8.27,1.28-3.32,3.58-6.81,7.43-6.69a6.46,6.46,0,0,1,4.59,2.28,10.15,10.15,0,0,1,2.3,6.9,16.82,16.82,0,0,1-.23,2.75,38,38,0,0,1-8.86,18.56c-4.54,5.37-9.56,10.5-12.67,16.82a33.16,33.16,0,0,0-3.16,10.52c-.65,5.21-1,10.53,1.85,14.9S60.6,166,65.75,165a16.37,16.37,0,0,1-11.46-13.75c-.39-3.84.62-7.67,1.87-11.31a40.42,40.42,0,0,1,5.72-11.52c4.32-5.69,9.94-10,13.79-16.06S78.91,96.68,84.25,92a4.7,4.7,0,0,1,5.43-.5,7,7,0,0,1,2.52,3.6,14.82,14.82,0,0,1-.38,9.25A48,48,0,0,1,89.54,110a57.26,57.26,0,0,0-3.61,9.29,22.86,22.86,0,0,0-.64,3.44,15.13,15.13,0,0,0,.55,6.19c2.12,6.77,9.59,11.55,9.67,18.66.06,5.35-4,11.8-9.09,13.46-3.39,1.1-7.36,1.12-10.26-.95-2-1.45-3.7-6-3.43-8.42a.89.89,0,0,0-.12-.57.94.94,0,0,0-1.55-.12c-1.4,1.76-1.22,3.69-.85,5.94.56,3.44,2.37,6.82,5.58,8.19a16.28,16.28,0,0,0,10.28.48c5-1.27,9.76-5.86,12-10.45,2.91-5.91,2.21-12.28-1.22-17.74-1.59-2.52-3.41-4.93-4.47-7.71a13,13,0,0,1-.57-7.57A19.74,19.74,0,0,1,93.21,118c1.27-2.83,3-5.5,4.58-8.31.07,0,1.54,0,2.1,0,3.69-.29,8-1.21,11.09-3.37a19.46,19.46,0,0,0,6.78-7.78A14.94,14.94,0,0,0,119,89.92Zm-10.67,12.67c-2.11,1.66-5.45,3-8.19,2.31a17,17,0,0,0,1.07-4.43c.35-3.74-.88-7.35-1.78-10.92a38.92,38.92,0,0,1-.94-5.37c-.06-.57-.23-5.68-.51-5.77a32.55,32.55,0,0,1,13,8.38,11.06,11.06,0,0,1,2.82,5.37C114.56,96.58,111.51,100.05,108.29,102.59Z"/><path class="cls-4" d="M91.82,104.34c-1.71-.08-3.22-.21-4.8.61a9.64,9.64,0,0,0-3.11,2.56,9.36,9.36,0,0,0-1.85,6.76,6.9,6.9,0,0,0,3.87,5l6.13-14.93Zm-5.32,8.53c0-.15.06-.29.09-.44a6.7,6.7,0,0,1,1-2.27c.36-.51,1.75-2,2.43-1.23l-2.88,6.34c0-.1-.56-.9-.61-1.06A2.64,2.64,0,0,1,86.5,112.87Z"/><path class="cls-5" d="M53,66.35h-.06a16.66,16.66,0,0,1-7.17-3.62.3.3,0,1,1,.39-.45,16.3,16.3,0,0,0,6.91,3.49.3.3,0,0,1,.23.36A.32.32,0,0,1,53,66.35Z"/><path class="cls-3" d="M38.62,37.92a4.19,4.19,0,0,1,1.76,1.24,1.62,1.62,0,0,1,0,2,2.15,2.15,0,0,1-1.84.36,1.93,1.93,0,0,1-1.14-.46,1.5,1.5,0,0,1,0-1.86A4.38,4.38,0,0,1,39,38Z"/><path class="cls-3" d="M39.53,28.42A1.27,1.27,0,0,1,39,30.35a1.94,1.94,0,0,1-.72.07c-1,0-2.17-.39-2.33-1.36a1.63,1.63,0,0,1,1.14-1.65,4.46,4.46,0,0,1,2.15-.07,1.61,1.61,0,0,1,1.07.43c.25.3.15.89-.24.93Z"/><path class="cls-3" d="M48.09,38a1.43,1.43,0,0,1,1.33,2.52,2.69,2.69,0,0,1-2.66-.48.83.83,0,0,1-.4-.43.73.73,0,0,1,.06-.48,3,3,0,0,1,.86-1.39,1.33,1.33,0,0,1,1.54-.13Z"/><path class="cls-3" d="M59.26,34.81A1.87,1.87,0,0,1,58,32.07a2.3,2.3,0,0,1,2.26-.86,4.83,4.83,0,0,1,2.25,1.17,2.36,2.36,0,0,1,1,1.66,1.79,1.79,0,0,1-1.83,1.57,5.15,5.15,0,0,1-2.51-.82Z"/><path class="cls-3" d="M52.62,25.52a1.39,1.39,0,0,1,.4,2.05,1.94,1.94,0,0,1-2.2.45,3.18,3.18,0,0,1-1.6-1.72,1.79,1.79,0,0,1-.2-1.08c.18-1,1.46-1.26,2.39-1s1.94,1.46,1.43,2.39Z"/><path class="cls-3" d="M44.65,19a3.8,3.8,0,0,1-2.82.71,1.46,1.46,0,0,1-1.25-.84,1.2,1.2,0,0,1,.76-1.35A3.56,3.56,0,0,1,43,17.4a2.79,2.79,0,0,1,1.8.55c.46.45.43,1.4-.18,1.58Z"/><path class="cls-3" d="M57,18.67c-.57,0-1,.4-1.56.62a1.9,1.9,0,0,1-1.94-.18,1.37,1.37,0,0,1-.25-1.83,1.54,1.54,0,0,1,1.48-.42,4.35,4.35,0,0,1,1.45.67,1.48,1.48,0,0,1,.75.79Z"/><path class="cls-3" d="M62,23.88a2,2,0,0,1-2.66.38,1.44,1.44,0,0,1,.37-2.39,1.94,1.94,0,0,1,.72,0,2.24,2.24,0,0,1,1.51.75,1.16,1.16,0,0,1-.08,1.56Z"/><path class="cls-3" d="M46.73,32.28a.56.56,0,0,1-.73.1c-.2-.17-.16-.58.1-.64a.45.45,0,0,1,.2,0,.64.64,0,0,1,.41.2.32.32,0,0,1,0,.42Z"/><path class="cls-3" d="M61.05,42.79a.54.54,0,0,1-.72.11.39.39,0,0,1,.1-.65.61.61,0,0,1,.19,0,.57.57,0,0,1,.41.21.31.31,0,0,1,0,.42Z"/><path class="cls-3" d="M34,34.5a.53.53,0,0,1-.72.11.39.39,0,0,1,.1-.65h.19a.6.6,0,0,1,.42.2.31.31,0,0,1,0,.42Z"/><path class="cls-3" d="M35.84,22.09a.78.78,0,0,1-1.06.15.57.57,0,0,1,.15-.95.88.88,0,0,1,.28,0,.92.92,0,0,1,.61.3.46.46,0,0,1,0,.62Z"/><path class="cls-3" d="M67.43,43a.81.81,0,0,1-1.07.15.57.57,0,0,1,.15-1,.93.93,0,0,1,.29,0,.89.89,0,0,1,.6.3.46.46,0,0,1,0,.62Z"/><path class="cls-3" d="M58.24,39.51a.8.8,0,0,1-1.06.15.57.57,0,0,1,.15-.95.88.88,0,0,1,.28,0,.92.92,0,0,1,.61.3.47.47,0,0,1,0,.62Z"/><path class="cls-3" d="M39.48,48.76a.81.81,0,0,1-1.07.15.57.57,0,0,1,.15-.95.93.93,0,0,1,.29,0,.91.91,0,0,1,.6.3.46.46,0,0,1,0,.62Z"/><path class="cls-3" d="M69,31.23a1.46,1.46,0,0,1-2.14-1.14,1.87,1.87,0,0,1,1.91-1.81A2.65,2.65,0,0,1,71,29.92a1.4,1.4,0,0,1,.12,1,1.23,1.23,0,0,1-1.13.76,3.72,3.72,0,0,1-1.41-.33Z"/><path class="cls-3" d="M72,39.73a4.56,4.56,0,0,1-2.62-.25,1.59,1.59,0,0,1-.7-2.22A1.55,1.55,0,0,1,70.54,37a3.92,3.92,0,0,1,1.38,1.5,1.27,1.27,0,0,1,.27.71c0,.26-.22.54-.48.5Z"/><path class="cls-6" d="M66.9,50.61A2.88,2.88,0,1,1,63.15,49,2.9,2.9,0,0,1,66.9,50.61Z"/><path class="cls-7" d="M66.22,50.88a2.16,2.16,0,1,1-2.81-1.24A2.17,2.17,0,0,1,66.22,50.88Z"/><path class="cls-6" d="M66.26,51.57l-.72.28a.49.49,0,0,1-.64-.28.5.5,0,0,1,.28-.64l.72-.28a.49.49,0,0,1,.64.28A.5.5,0,0,1,66.26,51.57Z"/><path class="cls-4" d="M67,50.41a3.06,3.06,0,0,0-5.61,2.41Z"/><path class="cls-6" d="M79.46,45.07a2.88,2.88,0,1,1-3.75-1.65A2.9,2.9,0,0,1,79.46,45.07Z"/><path class="cls-7" d="M78.78,45.34A2.16,2.16,0,1,1,76,44.1,2.17,2.17,0,0,1,78.78,45.34Z"/><path class="cls-6" d="M78.82,46l-.71.28a.49.49,0,0,1-.64-.28.49.49,0,0,1,.27-.64l.72-.28a.49.49,0,1,1,.36.92Z"/><path class="cls-4" d="M79.55,44.87A3.05,3.05,0,0,0,74,47.28Z"/><path class="cls-1" d="M22.06,96.1c-.24,3.58.07,7.17-.12,10.76S21,114.11,19,117c-4.13,5.82-12.82,7.72-15.57,14.31-.34.8-.89,1.83-1.64,1.91a3.4,3.4,0,0,1-.09-.63,7.58,7.58,0,0,1,1-3.73c.94-2,2.06-4,3.91-5.1a26.5,26.5,0,0,1,3.72-1.55c5.06-2.15,8-7.65,8.72-13.09.4-3.13.2-6.33.84-9.42a12,12,0,0,1,2.35-5.15C22.14,95.09,22.09,95.6,22.06,96.1Z"/><path class="cls-1" d="M96.13,152.25a16.66,16.66,0,0,1-7.77,9.4,13.44,13.44,0,0,1-6.75,1.73,9.63,9.63,0,0,1-6.38-2.59A10.46,10.46,0,0,1,72.42,153a10,10,0,0,1,.19-1.86.89.89,0,0,1,.12.57c-.27,2.41,1.4,7,3.43,8.42,2.9,2.07,6.87,2,10.26.95,5.1-1.66,9.15-8.11,9.09-13.46-.08-7.11-7.55-11.89-9.67-18.66a15.13,15.13,0,0,1-.55-6.19c1.46,2.74,2.47,5.73,4.06,8.41,1.83,3.09,4.39,5.73,6,9A16.67,16.67,0,0,1,96.13,152.25Z"/><path class="cls-1" d="M109.68,116.19a2.39,2.39,0,0,1-.25.51,10.51,10.51,0,0,1-2.74,2.86,11.16,11.16,0,0,1-7.14,2.16,6.69,6.69,0,0,1-3-.79,5,5,0,0,1-1.6-1.52,3.39,3.39,0,0,1-.33-.66,22.21,22.21,0,0,0,5.06,1.12c.47.06,1,.13,1.43.17a9.08,9.08,0,0,0,2,0,4.92,4.92,0,0,0,1.35-.37l.26-.13a5,5,0,0,0,.74-.44,11.49,11.49,0,0,0,1.13-.94c.52-.47,1-1,1.58-1.38A2.87,2.87,0,0,1,109.68,116.19Z"/><path class="cls-2" d="M88,129.26c.27.59.17,1.23-.24,1.41s-1-.14-1.22-.73-.17-1.22.23-1.41S87.75,128.67,88,129.26Z"/><path class="cls-3" d="M86.79,128.53a.67.67,0,0,0-.3.32,1.32,1.32,0,0,1,.8.75,1.36,1.36,0,0,1,.06,1.09.58.58,0,0,0,.43,0c.41-.18.51-.82.24-1.41S87.2,128.34,86.79,128.53Z"/><path class="cls-2" d="M98.09,119.65c.63.17,1,.66.93,1.09s-.72.64-1.35.47-1-.65-.93-1.08S97.46,119.48,98.09,119.65Z"/><path class="cls-3" d="M96.74,120.13a.59.59,0,0,0,.05.43,1.36,1.36,0,0,1,1.09-.13,1.32,1.32,0,0,1,.87.65.6.6,0,0,0,.27-.34c.11-.43-.3-.92-.93-1.09S96.85,119.7,96.74,120.13Z"/><path class="cls-2" d="M103.28,120.34a.45.45,0,0,1,0,.16,1.3,1.3,0,0,1-.08.17,1.48,1.48,0,0,1-2,.32.6.6,0,0,1-.08-.08l-.06-.09a.31.31,0,0,1,0-.1.19.19,0,0,1,0-.1.67.67,0,0,1,.22-.58,9.08,9.08,0,0,0,2,0,.5.5,0,0,1,.09.23S103.28,120.31,103.28,120.34Z"/><path class="cls-3" d="M103.28,120.34a.45.45,0,0,1,0,.16,1.3,1.3,0,0,1-.08.17,1.48,1.48,0,0,0-2,.32.6.6,0,0,1-.08-.08l-.06-.09a.31.31,0,0,1,0-.1.19.19,0,0,1,0-.1.67.67,0,0,1,.22-.58,9.08,9.08,0,0,0,2,0,.5.5,0,0,1,.09.23S103.28,120.31,103.28,120.34Z"/><path class="cls-2" d="M106.87,118.74a1.42,1.42,0,0,1-.68.86,1.31,1.31,0,0,1-1.08.16.78.78,0,0,1-.2-.11.37.37,0,0,1-.12-.13,5,5,0,0,0,.74-.44,11.49,11.49,0,0,0,1.13-.94.5.5,0,0,1,.15.17.67.67,0,0,1,.06.28v.15Z"/><path class="cls-3" d="M104.79,119.52a5,5,0,0,0,.74-.44,1.29,1.29,0,0,0-.42.68.78.78,0,0,1-.2-.11A.37.37,0,0,1,104.79,119.52Z"/><path class="cls-3" d="M106.87,118.74a1.35,1.35,0,0,0-1.08.16,2.2,2.2,0,0,0-.25.17,11,11,0,0,0,1.12-.93.5.5,0,0,1,.15.17A.64.64,0,0,1,106.87,118.74Z"/><path class="cls-2" d="M90.44,133.46c.28.59.17,1.22-.23,1.41s-1-.14-1.23-.74-.17-1.22.24-1.4S90.17,132.87,90.44,133.46Z"/><path class="cls-3" d="M89.22,132.73a.57.57,0,0,0-.3.31,1.35,1.35,0,0,1,.79.76,1.32,1.32,0,0,1,.06,1.09.66.66,0,0,0,.44,0c.4-.19.51-.82.23-1.41S89.62,132.54,89.22,132.73Z"/><path class="cls-2" d="M127.21,108.12c-.38.53-1,.75-1.34.49s-.36-.89,0-1.43,1-.75,1.34-.49S127.58,107.58,127.21,108.12Z"/><path class="cls-3" d="M127.23,106.69a.58.58,0,0,0-.43-.1,1.33,1.33,0,0,1-.25,1.06,1.35,1.35,0,0,1-.92.6.61.61,0,0,0,.24.36c.36.26,1,0,1.34-.49S127.59,106.94,127.23,106.69Z"/><path class="cls-2" d="M131.16,104.81c-.43.5-1,.66-1.38.37s-.27-.93.15-1.42,1-.66,1.39-.37S131.58,104.32,131.16,104.81Z"/><path class="cls-3" d="M131.32,103.39a.68.68,0,0,0-.42-.14,1.36,1.36,0,0,1-.35,1,1.32,1.32,0,0,1-1,.5.57.57,0,0,0,.2.39c.33.29.95.13,1.38-.37S131.65,103.68,131.32,103.39Z"/><path class="cls-2" d="M134.15,99.47c-.14.63-.61,1.07-1.05,1s-.67-.69-.53-1.33.6-1.07,1-1S134.28,98.83,134.15,99.47Z"/><path class="cls-3" d="M133.61,98.14a.6.6,0,0,0-.43.08,1.35,1.35,0,0,1,.18,1.08,1.39,1.39,0,0,1-.61.9.58.58,0,0,0,.35.25c.44.09.91-.35,1.05-1S134,98.24,133.61,98.14Z"/><path class="cls-2" d="M133.51,93.45c.21.61.05,1.23-.37,1.38S132.2,94.6,132,94s0-1.23.37-1.38S133.29,92.83,133.51,93.45Z"/><path class="cls-3" d="M132.35,92.6a.64.64,0,0,0-.32.29,1.48,1.48,0,0,1,.67,1.92.67.67,0,0,0,.44,0c.42-.15.58-.77.37-1.38S132.77,92.45,132.35,92.6Z"/><path class="cls-2" d="M130.8,88.72c.31.58.24,1.21-.15,1.43s-1-.09-1.27-.66-.24-1.21.15-1.42S130.49,88.15,130.8,88.72Z"/><path class="cls-3" d="M129.53,88.07a.65.65,0,0,0-.28.33,1.35,1.35,0,0,1,.84.71,1.33,1.33,0,0,1,.13,1.08.58.58,0,0,0,.43,0c.39-.22.46-.85.15-1.43S129.92,87.86,129.53,88.07Z"/><path class="cls-2" d="M127.34,85.22c.31.58.24,1.21-.15,1.43s-1-.09-1.27-.66-.24-1.21.15-1.42S127,84.65,127.34,85.22Z"/><path class="cls-3" d="M126.07,84.57a.65.65,0,0,0-.28.33,1.35,1.35,0,0,1,.84.71,1.33,1.33,0,0,1,.13,1.08.58.58,0,0,0,.43,0c.39-.22.46-.85.15-1.43S126.46,84.36,126.07,84.57Z"/><path class="cls-2" d="M106.62,64.51c.57.3.88.87.67,1.26s-.84.48-1.42.18-.88-.87-.67-1.26S106,64.21,106.62,64.51Z"/><path class="cls-3" d="M105.2,64.69a.58.58,0,0,0,0,.43,1.48,1.48,0,0,1,1.8.94.67.67,0,0,0,.33-.29c.21-.39-.1-1-.67-1.26S105.4,64.29,105.2,64.69Z"/><path class="cls-2" d="M105.08,68c.6.26.94.8.77,1.21s-.8.53-1.4.28-1-.79-.78-1.2S104.47,67.74,105.08,68Z"/><path class="cls-3" d="M103.67,68.28a.63.63,0,0,0,0,.43,1.34,1.34,0,0,1,1.09,0,1.35,1.35,0,0,1,.78.76.65.65,0,0,0,.31-.3c.17-.41-.17-1-.77-1.21S103.85,67.87,103.67,68.28Z"/><path class="cls-2" d="M124.73,81.47c.21.62,0,1.24-.39,1.38s-.93-.24-1.14-.86,0-1.23.38-1.37S124.52,80.86,124.73,81.47Z"/><path class="cls-3" d="M123.58,80.62a.6.6,0,0,0-.33.28,1.48,1.48,0,0,1,.66,1.92.59.59,0,0,0,.43,0c.43-.14.6-.76.39-1.38S124,80.47,123.58,80.62Z"/><path class="cls-2" d="M93.15,137.06c.28.59.17,1.22-.24,1.41s-1-.14-1.22-.73-.17-1.22.23-1.41S92.88,136.47,93.15,137.06Z"/><path class="cls-3" d="M91.92,136.33a.61.61,0,0,0-.29.32,1.34,1.34,0,0,1,.79.75,1.36,1.36,0,0,1,.06,1.09.63.63,0,0,0,.43,0c.41-.19.52-.82.24-1.41S92.33,136.14,91.92,136.33Z"/><path class="cls-2" d="M95.11,141.16c.16.36.1.74-.14.85s-.58-.09-.74-.44-.11-.74.14-.85S94.94,140.8,95.11,141.16Z"/><path class="cls-3" d="M94.37,140.72a.37.37,0,0,0-.18.19.83.83,0,0,1,.48.45.81.81,0,0,1,0,.66.36.36,0,0,0,.27,0c.24-.11.3-.49.14-.85S94.61,140.61,94.37,140.72Z"/><path class="cls-2" d="M96.43,144.57c.06.38-.1.73-.37.78s-.53-.24-.59-.63.1-.73.36-.78S96.36,144.18,96.43,144.57Z"/><path class="cls-3" d="M95.83,143.94a.4.4,0,0,0-.22.14.86.86,0,0,1,.34.56.85.85,0,0,1-.14.65.39.39,0,0,0,.25.06c.27,0,.43-.4.37-.78S96.1,143.9,95.83,143.94Z"/><path class="cls-2" d="M96.42,150.53c-.08.38-.36.65-.63.59s-.4-.42-.32-.8.37-.65.63-.59S96.51,150.15,96.42,150.53Z"/><path class="cls-3" d="M96.1,149.73a.36.36,0,0,0-.26.05.81.81,0,0,1,.11.65.82.82,0,0,1-.37.54.35.35,0,0,0,.21.15c.27.06.55-.21.63-.59S96.36,149.79,96.1,149.73Z"/><path class="cls-2" d="M94.86,155c-.2.34-.55.49-.78.35s-.25-.52,0-.86.56-.49.79-.35S95.07,154.63,94.86,155Z"/><path class="cls-3" d="M94.82,154.1a.34.34,0,0,0-.26,0,.84.84,0,0,1-.11.65.82.82,0,0,1-.53.39.34.34,0,0,0,.16.21c.23.14.58,0,.78-.35S95.05,154.24,94.82,154.1Z"/><path class="cls-2" d="M91.68,159c-.2.33-.56.49-.78.35s-.25-.52-.05-.86.56-.49.79-.35S91.88,158.69,91.68,159Z"/><path class="cls-3" d="M91.64,158.17a.34.34,0,0,0-.26,0,.89.89,0,0,1-.64,1,.37.37,0,0,0,.16.21c.22.14.58,0,.78-.35S91.86,158.31,91.64,158.17Z"/><path class="cls-2" d="M86.31,162.44c-.39.06-.74-.1-.78-.37s.24-.53.63-.59.73.11.78.37S86.7,162.38,86.31,162.44Z"/><path class="cls-3" d="M86.94,161.85a.4.4,0,0,0-.14-.22.81.81,0,0,1-.57.33.82.82,0,0,1-.64-.14.37.37,0,0,0-.06.25c0,.27.39.43.78.37S87,162.12,86.94,161.85Z"/><path class="cls-2" d="M79.5,162.92c-.37-.11-.61-.41-.54-.67s.45-.37.82-.26.62.41.55.67S79.88,163,79.5,162.92Z"/><path class="cls-3" d="M80.33,162.66a.39.39,0,0,0,0-.26.81.81,0,0,1-.66,0,.77.77,0,0,1-.51-.4.41.41,0,0,0-.17.2c-.07.26.17.56.54.67S80.25,162.92,80.33,162.66Z"/><path class="cls-2" d="M75,160.38c-.15-.21-.16-.47,0-.57s.39,0,.54.19.15.47,0,.57S75.18,160.59,75,160.38Z"/><path class="cls-3" d="M75.57,160.57a.19.19,0,0,0,.09-.14.58.58,0,0,1-.37-.24.53.53,0,0,1-.1-.42.21.21,0,0,0-.17,0c-.15.1-.14.36,0,.57S75.42,160.68,75.57,160.57Z"/><path class="cls-2" d="M121.3,77.41c-.31-.85-.09-1.71.49-1.93s1.3.3,1.62,1.15.09,1.71-.49,1.93S121.61,78.25,121.3,77.41Z"/><path class="cls-3" d="M122.92,78.56a.89.89,0,0,0,.45-.41,1.86,1.86,0,0,1-1-1.13,1.92,1.92,0,0,1,0-1.52.89.89,0,0,0-.6,0c-.58.22-.8,1.08-.49,1.93S122.34,78.77,122.92,78.56Z"/><path class="cls-2" d="M119.12,73.37c-.59-.68-.7-1.56-.23-2s1.32-.18,1.92.5.7,1.56.24,2S119.72,74.06,119.12,73.37Z"/><path class="cls-3" d="M121.05,73.87a.9.9,0,0,0,.27-.54,2.06,2.06,0,0,1-1.86-2.12.85.85,0,0,0-.57.19c-.47.41-.36,1.29.23,2S120.58,74.28,121.05,73.87Z"/><path class="cls-2" d="M114.25,70.07c-.79-.45-1.18-1.24-.88-1.78s1.19-.62,2-.17,1.18,1.24.88,1.78S115,70.52,114.25,70.07Z"/><path class="cls-3" d="M116.23,69.9a.88.88,0,0,0,.07-.6,1.85,1.85,0,0,1-1.5-.21,1.82,1.82,0,0,1-1-1.18.88.88,0,0,0-.48.38c-.3.54.09,1.33.88,1.78S115.92,70.44,116.23,69.9Z"/><path class="cls-2" d="M109,69c-.84-.33-1.34-1.06-1.12-1.64s1.09-.77,1.93-.45,1.35,1.06,1.13,1.64S109.82,69.37,109,69Z"/><path class="cls-3" d="M110.91,68.59a.91.91,0,0,0,0-.61,2,2,0,0,1-2.63-1,.94.94,0,0,0-.42.44c-.22.58.28,1.31,1.12,1.64S110.68,69.17,110.91,68.59Z"/><path class="cls-2" d="M101.64,66.4c-.78-.46-1.15-1.27-.83-1.8s1.2-.58,2-.12,1.15,1.27.83,1.8S102.41,66.87,101.64,66.4Z"/><path class="cls-3" d="M103.62,66.28a.85.85,0,0,0,.09-.59,1.88,1.88,0,0,1-1.5-.25,1.84,1.84,0,0,1-.92-1.2.85.85,0,0,0-.48.36c-.32.53,0,1.34.83,1.8S103.3,66.81,103.62,66.28Z"/><path class="cls-2" d="M16.21,117.53c.4-.52,1-.73,1.36-.46s.32.91-.07,1.43-1,.72-1.36.46S15.82,118.05,16.21,117.53Z"/><path class="cls-3" d="M16.14,119a.69.69,0,0,0,.43.11,1.32,1.32,0,0,1,.29-1.06,1.36,1.36,0,0,1,.93-.56.59.59,0,0,0-.22-.38c-.36-.27-1-.06-1.36.46S15.79,118.69,16.14,119Z"/><path class="cls-2" d="M19.14,112.1c.26-.6.8-.94,1.21-.76s.53.81.27,1.41-.81.93-1.21.75S18.88,112.7,19.14,112.1Z"/><path class="cls-3" d="M19.41,113.5a.63.63,0,0,0,.43,0,1.5,1.5,0,0,1,.81-1.87.65.65,0,0,0-.3-.31c-.41-.18-1,.16-1.21.76S19,113.33,19.41,113.5Z"/><path class="cls-2" d="M19.86,106.28c.11-.64.56-1.1,1-1s.7.66.59,1.3-.56,1.1-1,1S19.74,106.92,19.86,106.28Z"/><path class="cls-3" d="M20.45,107.58a.58.58,0,0,0,.42-.09,1.36,1.36,0,0,1-.22-1.07,1.33,1.33,0,0,1,.58-.93.67.67,0,0,0-.37-.23c-.44-.08-.89.38-1,1S20,107.51,20.45,107.58Z"/><path class="cls-2" d="M19.89,101.12c.05-.65.46-1.15.9-1.12s.76.59.71,1.24-.45,1.15-.89,1.12S19.84,101.77,19.89,101.12Z"/><path class="cls-3" d="M20.61,102.36a.64.64,0,0,0,.41-.13,1.36,1.36,0,0,1-.32-1,1.31,1.31,0,0,1,.48-1,.67.67,0,0,0-.39-.2c-.44,0-.85.47-.9,1.12S20.16,102.32,20.61,102.36Z"/><path class="cls-5" d="M61.2,52.3a.3.3,0,0,1-.3-.28A3.52,3.52,0,0,1,64,48.37a.29.29,0,0,1,.34.25.29.29,0,0,1-.25.34,2.87,2.87,0,0,0-2.63,3,.3.3,0,0,1-.28.32Z"/><path class="cls-5" d="M73.55,46.76a.31.31,0,0,1-.3-.28,3.53,3.53,0,0,1,3.14-3.65.3.3,0,0,1,.35.25.31.31,0,0,1-.25.34,2.91,2.91,0,0,0-2.64,3,.3.3,0,0,1-.28.32Z"/><path class="cls-2" d="M4.6,126.17c.38-.53,1-.74,1.34-.48s.35.9,0,1.43-1,.74-1.34.48S4.21,126.7,4.6,126.17Z"/><path class="cls-3" d="M4.56,127.6a.66.66,0,0,0,.42.1,1.32,1.32,0,0,1,.27-1.06,1.34,1.34,0,0,1,.92-.58.61.61,0,0,0-.23-.37c-.36-.26-1,0-1.34.48S4.2,127.34,4.56,127.6Z"/><path class="cls-2" d="M8.2,123.23c.54-.37,1.18-.37,1.43,0s0,1-.52,1.33-1.18.37-1.43,0S7.66,123.59,8.2,123.23Z"/><path class="cls-3" d="M7.68,124.56a.61.61,0,0,0,.36.24,1.38,1.38,0,0,1,.62-.91,1.31,1.31,0,0,1,1.06-.23.63.63,0,0,0-.09-.43c-.25-.37-.89-.37-1.43,0S7.43,124.19,7.68,124.56Z"/><path class="cls-2" d="M12.25,120.63c.54-.36,1.18-.36,1.43,0s0,1-.53,1.33-1.17.36-1.42,0S11.71,121,12.25,120.63Z"/><path class="cls-3" d="M11.73,122a.61.61,0,0,0,.36.24,1.31,1.31,0,0,1,.61-.9,1.34,1.34,0,0,1,1.07-.24.61.61,0,0,0-.09-.42c-.25-.37-.89-.37-1.43,0S11.47,121.59,11.73,122Z"/><path class="cls-5" d="M84.79,59.19a.3.3,0,0,1-.07-.59c3.28-.8,3.2-3,3.2-3a.3.3,0,0,1,.28-.32.32.32,0,0,1,.32.28s.1,2.72-3.66,3.64Z"/><path class="cls-5" d="M90.43,108.2l-.11,0a.31.31,0,0,1-.17-.39l1.24-3.23a.3.3,0,1,1,.56.21L90.71,108A.31.31,0,0,1,90.43,108.2Z"/><path class="cls-5" d="M98.17,109.26a.31.31,0,0,1-.13,0,.3.3,0,0,1-.15-.4L99.64,105a.31.31,0,0,1,.4-.15.3.3,0,0,1,.15.4l-1.75,3.87A.3.3,0,0,1,98.17,109.26Z"/><path class="cls-5" d="M86,119.26h-.08a.3.3,0,0,1-.21-.37c0-.09.67-2.35,1-3.14a.3.3,0,0,1,.55.24c-.34.75-1,3-1,3.06A.3.3,0,0,1,86,119.26Z"/><path class="cls-5" d="M91.94,121.93h-.06a.31.31,0,0,1-.24-.36,19.88,19.88,0,0,1,1.21-3.46.29.29,0,0,1,.39-.15.3.3,0,0,1,.15.4,19.64,19.64,0,0,0-1.16,3.33A.3.3,0,0,1,91.94,121.93Z"/><path class="cls-5" d="M97.94,78.71a.3.3,0,0,1-.3-.29l-.06-3a.3.3,0,0,1,.6,0l.06,3A.3.3,0,0,1,97.94,78.71Z"/></g></g></svg>